<svg width="564" height="385" viewBox="0 0 564 385" fill="none" xmlns="http://www.w3.org/2000/svg">
<g clip-path="url(#clip0_2392_220)">
<path d="M259.476 370.28H250.335C249.306 370.28 248.472 370.032 247.815 369.517C247.158 369.002 246.679 368.363 246.395 367.599L241.656 354.637H215.351L210.612 367.599C210.382 368.274 209.92 368.895 209.228 369.446C208.536 369.996 207.702 370.28 206.708 370.28H197.531L222.469 306.768H234.538L259.476 370.28ZM218.387 346.292H238.621L230.9 325.163C230.545 324.222 230.154 323.121 229.728 321.842C229.302 320.564 228.894 319.179 228.486 317.687C228.078 319.179 227.669 320.564 227.279 321.86C226.889 323.156 226.498 324.275 226.108 325.251L218.387 346.292Z" fill="#020203"/>
<path d="M297.069 334.751C296.75 335.159 296.43 335.479 296.128 335.71C295.827 335.94 295.383 336.065 294.797 336.065C294.247 336.065 293.697 335.887 293.164 335.567C292.632 335.23 292.011 334.857 291.283 334.431C290.555 334.005 289.685 333.632 288.674 333.295C287.662 332.957 286.42 332.798 284.929 332.798C283.029 332.798 281.361 333.135 279.923 333.827C278.486 334.52 277.296 335.496 276.338 336.793C275.379 338.089 274.67 339.634 274.208 341.462C273.747 343.291 273.498 345.369 273.498 347.677C273.498 350.074 273.747 352.222 274.261 354.087C274.776 355.969 275.504 357.531 276.48 358.81C277.438 360.088 278.61 361.047 279.994 361.704C281.361 362.361 282.923 362.698 284.645 362.698C286.366 362.698 287.768 362.485 288.833 362.059C289.898 361.633 290.804 361.171 291.531 360.656C292.259 360.142 292.898 359.68 293.448 359.254C293.981 358.828 294.602 358.615 295.276 358.615C296.146 358.615 296.821 358.952 297.247 359.627L300.37 363.586C299.163 364.989 297.868 366.179 296.466 367.12C295.063 368.078 293.608 368.824 292.099 369.41C290.591 369.978 289.029 370.387 287.431 370.618C285.816 370.848 284.219 370.973 282.639 370.973C279.852 370.973 277.243 370.458 274.776 369.41C272.327 368.38 270.179 366.853 268.351 364.865C266.523 362.876 265.067 360.443 264.002 357.549C262.937 354.673 262.405 351.37 262.405 347.695C262.405 344.392 262.884 341.32 263.825 338.497C264.783 335.674 266.168 333.224 268.014 331.164C269.859 329.104 272.131 327.489 274.865 326.317C277.58 325.145 280.722 324.559 284.254 324.559C287.626 324.559 290.573 325.109 293.093 326.192C295.631 327.275 297.903 328.82 299.927 330.844L297.069 334.751Z" fill="#020203"/>
<path d="M342.596 370.28H337.715C336.685 370.28 335.887 370.12 335.301 369.819C334.715 369.517 334.271 368.895 333.987 367.954L333.029 364.74C331.893 365.77 330.775 366.658 329.674 367.439C328.574 368.221 327.438 368.86 326.267 369.392C325.095 369.925 323.853 370.316 322.539 370.582C321.226 370.848 319.753 370.973 318.155 370.973C316.256 370.973 314.499 370.706 312.884 370.209C311.268 369.694 309.884 368.931 308.73 367.901C307.577 366.871 306.671 365.593 306.032 364.066C305.393 362.539 305.074 360.763 305.074 358.739C305.074 357.034 305.518 355.348 306.405 353.696C307.293 352.045 308.784 350.536 310.86 349.204C312.937 347.872 315.706 346.754 319.149 345.884C322.61 344.996 326.888 344.57 332.017 344.57V341.906C332.017 338.87 331.378 336.615 330.1 335.159C328.822 333.703 326.977 332.975 324.545 332.975C322.788 332.975 321.315 333.188 320.161 333.597C318.989 334.005 317.978 334.467 317.108 334.982C316.238 335.497 315.44 335.958 314.712 336.367C313.984 336.775 313.185 336.988 312.298 336.988C311.57 336.988 310.931 336.793 310.416 336.42C309.884 336.047 309.458 335.568 309.139 335.017L307.168 331.555C312.351 326.814 318.599 324.435 325.912 324.435C328.538 324.435 330.899 324.861 332.958 325.731C335.017 326.601 336.774 327.79 338.212 329.335C339.649 330.88 340.732 332.709 341.478 334.84C342.223 336.97 342.596 339.314 342.596 341.871V370.28ZM321.527 363.515C322.646 363.515 323.657 363.409 324.598 363.213C325.539 363.018 326.426 362.716 327.261 362.308C328.095 361.899 328.893 361.402 329.674 360.816C330.455 360.23 331.236 359.52 332.017 358.721V351.175C328.858 351.175 326.213 351.37 324.101 351.779C321.971 352.169 320.267 352.684 318.989 353.306C317.694 353.927 316.788 354.655 316.238 355.472C315.688 356.289 315.422 357.194 315.422 358.171C315.422 360.088 315.99 361.456 317.108 362.29C318.226 363.107 319.699 363.515 321.527 363.515Z" fill="#020203"/>
<path d="M384.963 370.28C383.561 370.28 382.638 369.623 382.194 368.309L381.325 363.959C380.384 365.007 379.408 365.966 378.378 366.818C377.349 367.67 376.248 368.398 375.059 369.02C373.87 369.641 372.592 370.103 371.243 370.44C369.876 370.777 368.403 370.937 366.824 370.937C364.374 370.937 362.102 370.422 360.061 369.393C358.02 368.363 356.245 366.889 354.772 364.936C353.299 362.983 352.145 360.586 351.346 357.709C350.548 354.833 350.139 351.566 350.139 347.872C350.139 344.534 350.601 341.427 351.506 338.551C352.411 335.674 353.725 333.188 355.411 331.075C357.115 328.962 359.138 327.329 361.517 326.139C363.895 324.95 366.557 324.364 369.504 324.364C372.024 324.364 374.172 324.772 375.964 325.571C377.757 326.37 379.355 327.453 380.757 328.803V304.992H391.602V370.263H384.963V370.28ZM370.515 362.326C372.77 362.326 374.686 361.864 376.266 360.923C377.846 359.982 379.337 358.65 380.739 356.928V336.722C379.514 335.23 378.165 334.165 376.728 333.561C375.272 332.94 373.728 332.638 372.06 332.638C370.427 332.638 368.936 332.94 367.605 333.561C366.273 334.183 365.155 335.106 364.232 336.349C363.309 337.592 362.599 339.172 362.102 341.09C361.605 343.007 361.357 345.262 361.357 347.872C361.357 350.5 361.57 352.738 361.996 354.566C362.422 356.395 363.025 357.887 363.824 359.041C364.623 360.195 365.581 361.03 366.717 361.544C367.835 362.077 369.113 362.326 370.515 362.326Z" fill="#020203"/>
<path d="M421.935 324.506C424.775 324.506 427.384 324.967 429.78 325.873C432.159 326.779 434.218 328.11 435.957 329.85C437.679 331.59 439.028 333.739 439.986 336.26C440.944 338.799 441.441 341.676 441.441 344.943C441.441 345.76 441.406 346.452 441.335 346.985C441.264 347.535 441.122 347.944 440.944 348.263C440.749 348.565 440.501 348.796 440.181 348.92C439.862 349.044 439.454 349.115 438.957 349.115H411.126C411.445 353.75 412.688 357.141 414.853 359.307C417.018 361.474 419.894 362.557 423.461 362.557C425.219 362.557 426.727 362.344 428.005 361.935C429.283 361.527 430.384 361.065 431.342 360.568C432.301 360.071 433.135 359.609 433.845 359.201C434.555 358.792 435.265 358.579 435.939 358.579C436.383 358.579 436.756 358.668 437.075 358.846C437.395 359.023 437.679 359.272 437.909 359.591L441.069 363.551C439.862 364.954 438.513 366.143 437.022 367.084C435.531 368.043 433.969 368.789 432.354 369.375C430.721 369.943 429.07 370.351 427.402 370.582C425.716 370.813 424.083 370.937 422.503 370.937C419.379 370.937 416.451 370.422 413.77 369.375C411.073 368.345 408.73 366.8 406.742 364.758C404.754 362.716 403.192 360.213 402.038 357.212C400.902 354.211 400.334 350.731 400.334 346.789C400.334 343.718 400.831 340.823 401.825 338.107C402.819 335.39 404.239 333.046 406.103 331.04C407.966 329.034 410.221 327.453 412.901 326.281C415.545 325.092 418.563 324.506 421.935 324.506ZM422.148 332.283C418.989 332.283 416.522 333.171 414.729 334.964C412.936 336.757 411.8 339.279 411.303 342.564H431.679C431.679 341.161 431.484 339.829 431.111 338.586C430.721 337.343 430.153 336.26 429.354 335.319C428.555 334.378 427.562 333.65 426.372 333.1C425.165 332.567 423.763 332.283 422.148 332.283Z" fill="#020203"/>
<path d="M450.245 370.28V325.216H456.883C458.286 325.216 459.208 325.873 459.652 327.187L460.362 330.525C461.161 329.655 461.977 328.838 462.847 328.11C463.717 327.382 464.64 326.743 465.616 326.228C466.592 325.695 467.657 325.287 468.775 324.985C469.893 324.683 471.136 324.523 472.485 324.523C475.325 324.523 477.65 325.287 479.496 326.832C481.324 328.359 482.691 330.418 483.596 332.957C484.306 331.466 485.176 330.187 486.223 329.122C487.27 328.057 488.441 327.187 489.684 326.512C490.944 325.837 492.275 325.34 493.695 325.021C495.115 324.701 496.535 324.541 497.973 324.541C500.458 324.541 502.676 324.914 504.611 325.677C506.546 326.441 508.161 327.56 509.492 329.016C510.805 330.489 511.817 332.265 512.492 334.378C513.184 336.491 513.521 338.906 513.521 341.622V370.298H502.676V341.622C502.676 338.746 502.055 336.597 500.795 335.141C499.535 333.685 497.689 332.975 495.257 332.975C494.139 332.975 493.11 333.17 492.169 333.543C491.21 333.934 490.376 334.467 489.666 335.195C488.956 335.905 488.388 336.81 487.98 337.894C487.572 338.977 487.359 340.22 487.359 341.622V370.298H476.461V341.622C476.461 338.604 475.857 336.402 474.633 335.035C473.426 333.65 471.633 332.975 469.255 332.975C467.71 332.975 466.255 333.366 464.888 334.147C463.522 334.928 462.261 335.976 461.09 337.325V370.316H450.245V370.28Z" fill="#020203"/>
<path d="M538.601 382.674C538.281 383.437 537.855 384.006 537.358 384.414C536.861 384.822 536.063 385 535.015 385H526.939L535.37 366.942L517.142 325.216H526.62C527.49 325.216 528.164 325.429 528.643 325.838C529.105 326.246 529.46 326.708 529.691 327.24L539.311 350.607C539.63 351.37 539.914 352.152 540.145 352.986C540.376 353.803 540.589 354.62 540.766 355.436C540.997 354.584 541.263 353.767 541.529 352.986C541.813 352.187 542.097 351.388 542.435 350.571L551.487 327.24C551.717 326.654 552.108 326.175 552.658 325.784C553.208 325.411 553.812 325.216 554.486 325.216H563.183L538.601 382.674Z" fill="#020203"/>
<path d="M76.2507 161.063H60.6314L0 241.568L1.63293 249.825C1.89917 250.997 2.53814 251.991 3.5321 252.772C4.50831 253.553 5.69751 253.944 7.04645 253.944H60.9864V286.491H76.2507V253.944H90.7519C92.1541 253.944 93.2368 253.518 93.9467 252.701C94.6212 251.92 94.9762 250.943 94.9762 249.807V240.148H76.2507V161.063ZM61.2704 182.974C61.1994 183.702 61.1461 184.412 61.1106 185.105C61.0219 186.862 60.9864 188.496 60.9864 189.988V240.148H19.2757L61.2704 182.974Z" fill="#020203"/>
<path d="M174.724 235.656C174.724 236.827 175.15 237.822 175.984 238.603C176.8 239.402 177.901 239.793 179.214 239.793H197.514V265.681C195.526 266.711 193.502 267.652 191.497 268.468C189.349 269.338 187.042 270.102 184.61 270.723C182.178 271.345 179.569 271.824 176.836 272.126C174.102 272.446 171.049 272.588 167.748 272.588C161.216 272.588 155.164 271.469 149.786 269.285C144.408 267.101 139.687 263.887 135.764 259.732C131.841 255.578 128.753 250.428 126.588 244.445C124.422 238.443 123.322 231.501 123.322 223.795C123.322 216.444 124.387 209.732 126.463 203.837C128.54 197.96 131.557 192.899 135.427 188.78C139.296 184.661 144.035 181.447 149.537 179.227C155.04 177.008 161.305 175.872 168.121 175.872C172.807 175.872 176.907 176.244 180.332 176.972C183.74 177.7 186.74 178.606 189.242 179.636C191.745 180.683 193.893 181.767 195.614 182.885C197.389 184.039 199.022 185.034 200.478 185.85C203.797 187.786 206.654 187.04 208.465 184.181L213.594 175.978L213.062 175.499C210.4 173.066 207.471 170.829 204.4 168.894C201.312 166.94 197.922 165.271 194.265 163.886C190.627 162.519 186.651 161.454 182.409 160.744C178.185 160.016 173.552 159.643 168.636 159.643C158.909 159.643 149.981 161.205 142.136 164.277C134.255 167.349 127.457 171.77 121.902 177.381C116.346 182.992 112.015 189.828 109.034 197.658C106.052 205.488 104.525 214.278 104.525 223.777C104.525 233.17 106.069 241.888 109.122 249.736C112.175 257.566 116.488 264.402 121.955 270.013C127.422 275.624 134.025 280.045 141.568 283.152C149.111 286.26 157.525 287.84 166.577 287.84C171.688 287.84 176.516 287.556 180.918 287.005C185.32 286.455 189.509 285.603 193.342 284.466C197.212 283.33 200.886 281.91 204.276 280.223C207.666 278.536 210.985 276.547 214.109 274.275L214.464 274.008V225.233H174.724V235.656Z" fill="#020203"/>
<path d="M307.648 241.213C308.269 240.254 308.553 238.514 308.553 235.922C308.553 229.636 307.612 223.937 305.784 219.001C303.938 214.047 301.329 209.821 298.045 206.447C294.744 203.074 290.786 200.446 286.278 198.652C281.769 196.859 276.782 195.953 271.457 195.953C265.032 195.953 259.174 197.09 254.027 199.345C248.88 201.6 244.443 204.743 240.875 208.702C237.307 212.644 234.539 217.385 232.639 222.765C230.74 228.127 229.782 233.969 229.782 240.148C229.782 247.747 230.847 254.583 232.941 260.46C235.036 266.355 238.017 271.38 241.798 275.393C245.579 279.406 250.122 282.495 255.305 284.573C260.488 286.65 266.203 287.698 272.327 287.698C275.504 287.698 278.77 287.414 282.053 286.863C285.301 286.313 288.514 285.461 291.567 284.36C294.62 283.259 297.548 281.821 300.246 280.081C302.962 278.341 305.323 276.263 307.257 273.902L307.701 273.369L302.997 267.243C301.506 265.13 298.897 264.58 295.383 266.888C294.07 267.758 292.401 268.717 290.413 269.729C288.443 270.741 286.065 271.7 283.331 272.57C280.633 273.44 277.385 273.866 273.622 273.866C269.611 273.866 265.937 273.209 262.724 271.895C259.529 270.599 256.725 268.61 254.418 266C252.093 263.372 250.229 260.034 248.898 256.057C247.62 252.293 246.892 247.818 246.715 242.776H303.991C305.731 242.811 306.973 242.278 307.648 241.213ZM293.022 231.501H247.336C248.436 224.594 250.974 219.089 254.897 215.148C258.961 211.046 264.659 208.969 271.812 208.969C275.184 208.969 278.219 209.537 280.829 210.673C283.438 211.792 285.674 213.407 287.467 215.467C289.277 217.527 290.679 220.013 291.602 222.854C292.472 225.464 292.951 228.376 293.022 231.501Z" fill="#020203"/>
<path d="M398.08 241.213C398.701 240.254 399.003 238.514 399.003 235.904C399.003 229.618 398.062 223.919 396.234 218.983C394.388 214.029 391.779 209.803 388.495 206.429C385.194 203.056 381.236 200.428 376.71 198.635C372.202 196.841 367.214 195.936 361.889 195.936C355.482 195.936 349.607 197.072 344.46 199.327C339.312 201.582 334.875 204.725 331.307 208.684C327.74 212.626 324.971 217.367 323.072 222.747C321.173 228.109 320.214 233.951 320.214 240.13C320.214 247.729 321.279 254.565 323.373 260.443C325.468 266.338 328.45 271.362 332.23 275.375C336.011 279.388 340.555 282.478 345.738 284.555C350.903 286.633 356.636 287.68 362.759 287.68C365.936 287.68 369.202 287.396 372.486 286.846C375.752 286.295 378.946 285.443 381.999 284.342C385.052 283.241 387.981 281.803 390.679 280.063C393.394 278.323 395.755 276.245 397.69 273.884L398.133 273.351L393.43 267.225C391.939 265.112 389.33 264.562 385.815 266.87C384.52 267.74 382.833 268.699 380.846 269.711C378.875 270.723 376.497 271.682 373.764 272.552C371.083 273.422 367.818 273.848 364.055 273.848C360.043 273.848 356.369 273.191 353.157 271.877C349.962 270.581 347.157 268.593 344.85 265.982C342.525 263.355 340.661 260.016 339.33 256.039C338.052 252.275 337.324 247.818 337.147 242.758H394.424C396.181 242.811 397.406 242.278 398.08 241.213ZM337.786 231.501C338.886 224.594 341.424 219.089 345.347 215.147C349.412 211.046 355.109 208.968 362.262 208.968C365.634 208.968 368.67 209.537 371.279 210.673C373.888 211.792 376.124 213.407 377.917 215.467C379.727 217.527 381.13 220.013 382.052 222.853C382.922 225.481 383.401 228.393 383.472 231.518H337.786V231.501Z" fill="#020203"/>
<path d="M456.883 238.816C456.298 238.195 455.659 237.609 454.966 237.076C455.57 236.65 456.138 236.17 456.67 235.673C457.469 234.892 458.286 234.004 459.067 233.045L492.613 197.321H476.638C475.041 197.321 473.71 197.658 472.716 198.333C471.793 198.954 470.87 199.753 469.982 200.712L442.364 230.311C441.53 231.199 440.785 231.785 440.146 232.051C439.507 232.317 438.673 232.46 437.643 232.46H434.537V157.619H417.374V286.508H434.537V244.729H437.998C439.596 244.729 440.785 244.889 441.53 245.226C442.24 245.528 443.003 246.238 443.784 247.339L472.52 283.152C473.39 284.289 474.349 285.123 475.325 285.674C476.337 286.224 477.561 286.508 478.981 286.508H494.565L459.333 242.012C458.57 240.805 457.753 239.739 456.883 238.816Z" fill="#020203"/>
<path d="M561.959 249.452C560.61 246.86 558.817 244.622 556.599 242.829C554.415 241.071 551.913 239.562 549.144 238.39C546.428 237.236 543.606 236.17 540.749 235.212C537.891 234.253 535.122 233.365 532.406 232.531C529.762 231.714 527.366 230.755 525.307 229.69C523.283 228.66 521.65 227.417 520.426 226.014C519.254 224.665 518.686 223.013 518.686 220.971C518.686 219.338 519.041 217.793 519.751 216.408C520.461 215.005 521.526 213.745 522.875 212.679C524.242 211.596 525.946 210.726 527.916 210.105C529.886 209.466 532.158 209.146 534.643 209.146C537.536 209.146 540.074 209.466 542.168 210.105C544.298 210.744 546.162 211.454 547.688 212.218C549.25 212.981 550.582 213.692 551.647 214.313C554.948 216.231 557.628 215.467 558.959 213.052L562.758 206.856L562.243 206.376C558.835 203.145 554.753 200.57 550.102 198.741C545.452 196.895 540.127 195.953 534.288 195.953C529.265 195.953 524.721 196.664 520.798 198.084C516.858 199.505 513.486 201.422 510.77 203.819C508.037 206.216 505.942 209.057 504.505 212.236C503.085 215.414 502.357 218.77 502.357 222.214C502.357 226.067 503.031 229.405 504.38 232.14C505.729 234.857 507.522 237.165 509.741 239.029C511.924 240.858 514.444 242.403 517.249 243.61C520 244.8 522.84 245.865 525.697 246.788C528.555 247.712 531.341 248.6 534.075 249.434C536.737 250.251 539.151 251.21 541.21 252.311C543.233 253.376 544.866 254.654 546.073 256.146C547.245 257.584 547.813 259.36 547.813 261.597C547.813 263.426 547.475 265.184 546.801 266.782C546.144 268.38 545.097 269.818 543.713 271.043C542.31 272.286 540.518 273.28 538.388 274.026C536.24 274.772 533.684 275.145 530.809 275.145C527.419 275.145 524.561 274.754 522.325 273.99C520.053 273.209 518.1 272.321 516.521 271.38C514.906 270.422 513.521 269.534 512.385 268.735C509.812 266.941 507.202 267.119 505.641 268.113C504.895 268.593 504.256 269.267 503.724 270.12L499.73 276.601L500.262 277.08C503.777 280.241 508.108 282.868 513.113 284.875C518.136 286.899 523.816 287.911 530.01 287.911C535.424 287.911 540.287 287.165 544.44 285.709C548.611 284.236 552.197 282.194 555.072 279.619C557.983 277.044 560.202 273.937 561.675 270.422C563.148 266.906 563.894 263.035 563.894 258.916C564 255.24 563.308 252.08 561.959 249.452Z" fill="#020203"/>
<path d="M402.748 63.6548H397.867V56.6768C397.867 52.7882 394.708 49.6277 390.821 49.6277H379.301C377.757 39.5956 368.421 35.7071 368.421 35.7071C396.483 27.2908 379.639 1.59813 379.639 1.59813C373.941 12.4647 366.717 13.7609 354.47 12.9086C341.921 12.0386 284.627 -15.3409 253.814 12.3582C238.852 25.8171 235.692 39.4358 236.207 49.6277H229.391C225.504 49.6277 222.345 52.7882 222.345 56.6768V63.6548H216.913C215.068 63.6548 213.541 65.1641 213.541 67.0284V70.6329C213.541 72.4795 215.05 74.0065 216.913 74.0065H222.345V111.738C222.345 115.626 225.504 118.787 229.391 118.787H237.574V127.789C237.574 145.048 251.56 159.039 268.812 159.039H347.104C364.356 159.039 378.343 145.048 378.343 127.789V118.787H390.803C394.69 118.787 397.849 115.626 397.849 111.738V74.0065H402.73C404.576 74.0065 406.103 72.4972 406.103 70.6329V67.0284C406.103 65.1641 404.594 63.6548 402.748 63.6548ZM287.697 103.748C287.697 106.091 285.798 107.991 283.455 107.991H237.414C235.071 107.991 233.172 106.091 233.172 103.748V64.6669C233.172 62.3231 235.071 60.4232 237.414 60.4232H283.455C285.798 60.4232 287.697 62.3231 287.697 64.6669V103.748ZM387.04 103.819C387.04 106.162 385.141 108.062 382.798 108.062H336.756C334.414 108.062 332.514 106.162 332.514 103.819V64.6669C332.514 62.3231 334.414 60.4232 336.756 60.4232H382.798C385.141 60.4232 387.04 62.3231 387.04 64.6669V103.819Z" fill="#020203"/>
</g>
<defs>
<clipPath id="clip0_2392_220">
<rect width="564" height="385" fill="white"/>
</clipPath>
</defs>
</svg>
