<svg width="191" height="199" viewBox="0 0 651 678" fill="none" xmlns="http://www.w3.org/2000/svg">
<path fill-rule="evenodd" clip-rule="evenodd" d="M333.026 3.39899C284.789 3.39899 240.414 11.4661 199.881 27.579L199.869 27.5838C159.921 43.1009 125.278 65.4725 95.9214 94.6985C67.1597 123.92 44.5429 159.418 28.083 201.223L28.0799 201.231C11.6339 242.403 3.39596 288.385 3.39596 339.2C3.39596 388.81 11.6322 433.889 28.0767 474.461C44.533 515.062 67.1479 549.966 95.9146 579.195C125.273 607.824 159.92 630.2 199.876 646.319C240.409 661.833 284.787 669.601 333.026 669.601C379.519 669.601 450.432 653.012 510.697 605.473C570.893 557.989 620.571 479.545 624.594 355.576C624.877 346.88 618.804 339.196 610.281 337.276L343.926 277.271L297.949 370.95L506.216 412.032C519.066 414.567 526.897 427.677 523.046 440.206L516.089 462.835L516.06 462.906C492.088 521.617 453.632 548.556 417.546 560.756C386.13 571.377 356.535 570.803 340.176 570.487C337.796 570.44 335.696 570.4 333.912 570.4C301.216 570.4 271.444 564.359 244.623 552.249L244.61 552.243C218.418 540.148 195.787 523.511 176.731 502.338C157.676 481.164 142.804 456.074 132.105 427.089L132.094 427.06C121.984 398.06 116.939 366.368 116.939 332C116.939 300.018 121.989 270.12 132.102 242.318L132.113 242.288C142.815 214.504 157.688 190.319 176.739 169.753C195.797 148.58 218.433 132.241 244.632 120.747C271.45 108.639 301.219 102.6 333.912 102.6C365.998 102.6 396.322 108.033 424.871 118.909C446.965 127.154 466.518 138.014 483.518 151.496C491.78 158.048 503.687 157.924 510.886 150.532L564.229 95.758C571.64 88.1474 571.224 75.9537 562.997 69.5042C534.184 46.9151 502.268 30.863 467.238 21.3396L467.217 21.3335C425.45 9.38093 380.722 3.39899 333.026 3.39899ZM198.634 24.4174C239.603 8.13197 284.407 0 333.026 0C381.004 0 426.044 6.01707 468.14 18.0625C503.607 27.7062 535.928 43.9642 565.092 66.8283C575.04 74.6278 575.363 89.1938 566.66 98.1305L513.318 152.904C504.749 161.703 490.854 161.651 481.409 154.16C464.71 140.917 445.472 130.224 423.681 122.092L423.67 122.088C395.524 111.365 365.609 105.999 333.912 105.999C301.642 105.999 272.354 111.959 246.02 123.849L246.003 123.856C220.236 135.16 197.992 151.217 179.254 172.037L179.238 172.055C160.498 192.284 145.846 216.091 135.288 243.496C125.324 270.891 120.335 300.387 120.335 332C120.335 366.027 125.329 397.33 135.296 425.926C145.858 454.535 160.515 479.24 179.254 500.063C197.996 520.888 220.25 537.25 246.028 549.155C272.36 561.042 301.646 567.001 333.912 567.001C335.742 567.001 337.878 567.041 340.285 567.087C356.678 567.399 385.653 567.95 416.459 557.536C451.673 545.631 489.316 519.368 512.888 461.69L519.8 439.207C523.059 428.605 516.432 417.512 505.56 415.367L292.949 373.428L342.059 273.366L611.027 333.96C621.097 336.228 628.325 345.317 627.989 355.686C623.933 480.63 573.803 560.021 512.799 608.143C451.862 656.211 380.183 673 333.026 673C284.412 673 239.613 665.17 198.648 649.488L198.62 649.477C158.264 633.198 123.229 610.58 93.5329 581.618L93.5083 581.593C64.4021 552.024 41.5449 516.732 24.9299 475.739C8.30064 434.711 0 389.191 0 339.2C0 288.016 8.29856 241.598 24.9255 199.972C41.5381 157.781 64.395 121.883 93.5083 92.3069L93.5204 92.2947C123.221 62.7249 158.265 40.0993 198.634 24.4174Z" fill="black"/>
<path d="M357.069 678C450.927 678 642.893 611.204 650.99 362.142C651.3 352.604 644.635 344.213 635.317 342.117L367.057 281.782L319.408 378.711L530.317 420.246C542.205 422.587 549.45 434.696 545.887 446.268L538.937 468.838C491.287 585.345 386.369 575.339 357.956 575.339C325.401 575.339 295.805 569.335 269.168 557.328C243.123 545.321 220.63 528.811 201.689 507.798C182.747 486.786 167.949 461.871 157.295 433.054C147.232 404.236 142.201 372.718 142.201 338.497C142.201 306.678 147.232 276.961 157.295 249.344C167.949 221.728 182.747 197.713 201.689 177.301C220.63 156.288 243.123 140.079 269.168 128.672C295.805 116.665 325.401 110.661 357.956 110.661C389.92 110.661 420.108 116.064 448.521 126.871C470.513 135.065 489.953 145.847 506.84 159.219C515.713 166.244 528.643 166.208 536.545 158.108L590.006 103.301C598.082 95.0229 597.711 81.6351 588.603 74.5063C559.549 51.765 527.356 35.5998 492.027 26.0107C450 14.0036 405.014 8 357.069 8C308.531 8 263.841 16.1048 222.998 32.3145C182.747 47.9238 147.824 70.4373 118.228 99.8548C89.2236 129.272 66.4346 164.994 49.8608 207.019C33.2869 248.444 25 294.671 25 345.702C25 395.531 33.2869 440.858 49.8608 481.683C66.4346 522.507 89.2236 557.628 118.228 587.046C147.824 615.863 182.747 638.376 222.998 654.586C263.841 670.195 308.531 678 357.069 678Z" fill="#FF7900"/>
<path fill-rule="evenodd" clip-rule="evenodd" d="M408.084 209C407.177 209 406.309 209.362 405.67 210.005L268.038 348.751L308.312 309.879L414.936 464H425.216L322.698 306.575L414.052 209H408.084ZM242.86 243H238.996V430H242.86V243ZM381.536 186.06C388.557 178.981 398.114 175 408.084 175H429.733C453.534 175 465.853 203.415 449.585 220.791L365.731 310.356L460.548 455.956C472.331 474.049 459.348 498 437.758 498H411.373C402.445 498 394.087 493.618 389.007 486.276L303.125 362.137L276.856 387.492V436.8C276.856 451.822 264.679 464 249.659 464H232.197C217.176 464 205 451.822 205 436.8V236.2C205 221.178 217.176 209 232.197 209H249.659C264.679 209 276.856 221.178 276.856 236.2V291.587L381.536 186.06Z" fill="black"/>
<path d="M232 246.2C232 240.567 236.587 236 242.245 236H259.786C265.444 236 270.031 240.567 270.031 246.2V342.86L404.383 208.032C408.23 204.172 413.466 202 418.929 202H440.676C449.642 202 454.283 212.656 448.155 219.172L354.771 318.466L457.323 475.233C461.761 482.018 456.871 491 448.738 491H422.233C418.87 491 415.721 489.357 413.808 486.604L316.1 346.008L270.031 390.273V446.8C270.031 452.433 265.444 457 259.786 457H242.245C236.587 457 232 452.433 232 446.8V246.2Z" fill="#FF7900"/>
<path fill-rule="evenodd" clip-rule="evenodd" d="M418.865 219C417.955 219 417.083 219.362 416.442 220.005L278.281 358.751L318.71 319.879L425.744 474H436.063L333.151 316.575L424.856 219H418.865ZM253.005 253H249.127V440H253.005V253ZM392.215 196.06C399.263 188.981 408.857 185 418.865 185H440.597C464.49 185 476.857 213.415 460.526 230.791L376.349 320.356L471.531 465.956C483.359 484.049 470.327 508 448.653 508H422.166C413.205 508 404.814 503.618 399.715 496.276L313.502 372.137L287.132 397.492V446.8C287.132 461.822 274.909 474 259.831 474H242.302C227.223 474 215 461.822 215 446.8V246.2C215 231.178 227.223 219 242.302 219H259.831C274.909 219 287.132 231.178 287.132 246.2V301.587L392.215 196.06Z" fill="#FF7900"/>
</svg>
